<svg width="401" height="104" viewBox="0 0 401 104" fill="none" xmlns="http://www.w3.org/2000/svg">
<path d="M11.9688 62.5938C13.1979 62.5938 14.1562 62.625 14.8438 62.6875V39.375C13.7812 39.5417 12.3542 39.625 10.5625 39.625H10.3125V62.5938H11.9688ZM19.9062 66.4375C13.8229 65.625 8.1875 65.7396 3 66.7812C2.52083 66.7812 2.13542 66.6042 1.84375 66.25C1.55208 65.8958 1.40625 65.5208 1.40625 65.125C1.40625 64.7292 1.52083 64.375 1.75 64.0625C1.97917 63.75 2.38542 63.5417 2.96875 63.4375C4.13542 63.2083 5.48958 63.0208 7.03125 62.875V39.5L2.25 39.125C1.83333 39.0625 1.48958 38.875 1.21875 38.5625C0.96875 38.25 0.84375 37.8646 0.84375 37.4062C0.84375 36.9271 1.03125 36.5521 1.40625 36.2812C1.78125 35.9896 2.14583 35.8438 2.5 35.8438H2.6875C2.70833 35.8438 2.94792 35.875 3.40625 35.9375C3.86458 35.9792 4.45833 36.0417 5.1875 36.125C7 36.2917 8.8125 36.375 10.625 36.375C12.9792 36.375 14.8333 36.1979 16.1875 35.8438H16.5C16.9792 35.8438 17.375 36.0104 17.6875 36.3438C18.0208 36.6771 18.1875 37.0521 18.1875 37.4688V41.5625C19.9583 38.6875 22.1667 36.7708 24.8125 35.8125C25.7917 35.4583 26.8125 35.2812 27.875 35.2812C28.9375 35.2812 29.875 35.4271 30.6875 35.7188C31.5 36.0104 32.2292 36.4167 32.875 36.9375C34.125 38 35.0312 39.4271 35.5938 41.2188C38.1562 37.2604 41.5 35.2812 45.625 35.2812C48.7708 35.2812 51.0833 36.6146 52.5625 39.2812C53.7083 41.3438 54.2812 44.1771 54.2812 47.7812C54.2812 51.3854 53.75 56.2188 52.6875 62.2812C55.7708 62.2812 57.5625 62.5625 58.0625 63.125C58.3542 63.4375 58.5 63.8125 58.5 64.25C58.5 64.6667 58.3229 65.0417 57.9688 65.375C57.6354 65.7083 57.2604 65.875 56.8438 65.875H56.625C55.0833 65.6667 53.375 65.5625 51.5 65.5625C49.6458 65.5625 47.4167 65.7708 44.8125 66.1875H44.5312C44.0938 66.1875 43.7188 66.0312 43.4062 65.7188C43.0938 65.3854 42.9375 65.0104 42.9375 64.5938C42.9375 64.1771 43.0625 63.8125 43.3125 63.5C43.5833 63.1875 44.0417 62.9792 44.6875 62.875C46.5 62.625 48.0312 62.4479 49.2812 62.3438C50.3854 56.8229 50.9375 51.8958 50.9375 47.5625C50.9375 44.9792 50.6875 43.1042 50.1875 41.9375C49.6875 40.7708 49.0833 39.9167 48.375 39.375C47.6875 38.8125 46.6875 38.5312 45.375 38.5312C44.0833 38.5312 42.9062 38.8333 41.8438 39.4375C40.8021 40.0417 39.9062 40.7917 39.1562 41.6875C37.9688 43.0833 36.9896 44.9583 36.2188 47.3125C36.2188 51.0625 35.7708 56.0729 34.875 62.3438C35.6667 62.3438 37.0312 62.4271 38.9688 62.5938C39.4271 62.6354 39.7812 62.8125 40.0312 63.125C40.3021 63.4375 40.4375 63.8229 40.4375 64.2812C40.4375 64.7396 40.2708 65.125 39.9375 65.4375C39.6042 65.7292 39.2396 65.875 38.8438 65.875H38.6562C35.1979 65.4583 31.3333 65.5625 27.0625 66.1875H26.8125C26.3542 66.1875 25.9688 66.0312 25.6562 65.7188C25.3646 65.3854 25.2188 65.0104 25.2188 64.5938C25.2188 64.1771 25.3438 63.8125 25.5938 63.5C25.8646 63.1875 26.3333 62.9792 27 62.875C28.8125 62.625 30.3333 62.4688 31.5625 62.4062C32.5 56.5521 32.9688 51.4792 32.9688 47.1875C32.9688 44.6458 32.7396 42.8333 32.2812 41.75C31.8229 40.6667 31.2604 39.8646 30.5938 39.3438C29.9479 38.8021 29.0833 38.5312 28 38.5312C26.9375 38.5312 25.9688 38.7708 25.0938 39.25C24.2188 39.7083 23.4271 40.3021 22.7188 41.0312C22.0104 41.7396 21.3854 42.5312 20.8438 43.4062C20.3229 44.2604 19.875 45.0833 19.5 45.875C18.875 47.2083 18.4375 48.3438 18.1875 49.2812L18.125 62.9375C18.5 62.9792 18.8646 63.0208 19.2188 63.0625C19.5729 63.1042 19.9375 63.1562 20.3125 63.2188C20.7083 63.2604 21.0417 63.4375 21.3125 63.75C21.6042 64.0625 21.75 64.4375 21.75 64.875C21.75 65.3125 21.5729 65.6875 21.2188 66C20.8854 66.2917 20.5104 66.4375 20.0938 66.4375H19.9062ZM74.7188 38.75C73.6562 38.9167 72.2292 39 70.4375 39H70.1875V62.5312C70.5833 62.4896 70.9688 62.4688 71.3438 62.4688C72.0938 62.4688 72.75 62.4688 73.3125 62.4688C73.875 62.4688 74.3438 62.4896 74.7188 62.5312V38.75ZM74.3438 25.6875C74.3438 25.0417 74.1146 24.5 73.6562 24.0625C73.2188 23.6042 72.6771 23.375 72.0312 23.375C71.3854 23.375 70.8438 23.6042 70.4062 24.0625C69.9688 24.5 69.75 25.0417 69.75 25.6875C69.75 26.3333 69.9688 26.875 70.4062 27.3125C70.8438 27.75 71.3854 27.9688 72.0312 27.9688C72.6771 27.9688 73.2188 27.75 73.6562 27.3125C74.1146 26.875 74.3438 26.3333 74.3438 25.6875ZM82.1562 66.7812C78.7188 66.0938 75.5104 65.75 72.5312 65.75C69.5521 65.75 66.3438 66.0938 62.9062 66.7812C62.4271 66.7812 62.0312 66.6042 61.7188 66.25C61.4271 65.8958 61.2812 65.5208 61.2812 65.125C61.2812 64.7292 61.3958 64.375 61.625 64.0625C61.875 63.75 62.2708 63.5417 62.8125 63.4375C63.375 63.3125 64.0208 63.2083 64.75 63.125C65.5 63.0208 66.2292 62.9167 66.9375 62.8125V38.875L62.125 38.4688C61.7083 38.4062 61.3646 38.2188 61.0938 37.9062C60.8438 37.5938 60.7188 37.2083 60.7188 36.75C60.7188 36.2708 60.9062 35.8958 61.2812 35.625C61.6562 35.3542 62.0208 35.2188 62.375 35.2188H62.5625C62.5833 35.2188 62.8229 35.25 63.2812 35.3125C63.7396 35.3542 64.3333 35.4062 65.0625 35.4688C67.0417 35.6354 68.8542 35.7188 70.5 35.7188C72.7917 35.7188 74.6458 35.5521 76.0625 35.2188H76.4062C76.8854 35.2188 77.2812 35.3854 77.5938 35.7188C77.9062 36.0312 78.0625 36.3958 78.0625 36.8125L78 62.8125C78.7292 62.9167 79.4583 63.0208 80.1875 63.125C80.9375 63.2083 81.6042 63.3125 82.1875 63.4375C83.2708 63.6458 83.8125 64.1979 83.8125 65.0938C83.8125 65.5729 83.6354 65.9688 83.2812 66.2812C82.9271 66.6146 82.5521 66.7812 82.1562 66.7812ZM77.625 25.6875C77.625 27.25 77.0833 28.5625 76 29.625C74.875 30.7083 73.5521 31.25 72.0312 31.25C70.4896 31.25 69.1771 30.7083 68.0938 29.625C67.0104 28.5417 66.4688 27.2292 66.4688 25.6875C66.4688 24.1458 67.0104 22.8333 68.0938 21.75C69.1771 20.6667 70.4896 20.125 72.0312 20.125C73.5521 20.125 74.875 20.6667 76 21.75C77.0833 22.8125 77.625 24.125 77.625 25.6875ZM98.9062 63.75C96.1354 60.8542 94.75 56.7812 94.75 51.5312C94.75 48.2396 95.2917 45.0833 96.375 42.0625C97.4375 39.1667 98.6458 37.2708 100 36.375C93.375 38 90.0625 42.9271 90.0625 51.1562C90.0625 56.0104 91.75 59.6146 95.125 61.9688C96.2292 62.7396 97.4896 63.3333 98.9062 63.75ZM117.156 45.25C117.094 45.6667 116.896 46.0104 116.562 46.2812C116.25 46.5521 115.885 46.6875 115.469 46.6875C115.052 46.6875 114.688 46.5417 114.375 46.25C114.083 45.9583 113.927 45.4792 113.906 44.8125C113.885 44.125 113.688 43.2917 113.312 42.3125C112.938 41.3333 112.427 40.4375 111.781 39.625C110.281 37.75 108.656 36.8125 106.906 36.8125C104.76 36.8125 102.948 37.7083 101.469 39.5C99.6979 41.6458 98.6042 44.7188 98.1875 48.7188C98.0625 49.7812 98 50.8958 98 52.0625C98 53.2083 98.1562 54.5104 98.4688 55.9688C98.8021 57.4271 99.3021 58.7292 99.9688 59.875C101.469 62.5 103.562 63.8125 106.25 63.8125C108.25 63.8125 110.083 62.9583 111.75 61.25C113.271 59.6875 114.281 57.9479 114.781 56.0312C115.01 55.1354 115.542 54.6875 116.375 54.6875C116.833 54.6875 117.219 54.8646 117.531 55.2188C117.865 55.5521 118.031 55.8542 118.031 56.125C118.031 56.3958 117.979 56.7292 117.875 57.125C117.792 57.5 117.573 58.0938 117.219 58.9062C116.865 59.7188 116.396 60.5312 115.812 61.3438C115.25 62.1562 114.562 62.9479 113.75 63.7188C112.938 64.4688 112.01 65.1354 110.969 65.7188C108.656 67.0104 106.198 67.6562 103.594 67.6562C101.01 67.6562 98.7083 67.25 96.6875 66.4375C94.6667 65.6458 92.9271 64.5208 91.4688 63.0625C88.3646 60 86.8125 56.0312 86.8125 51.1562C86.8125 45.7396 88.2292 41.3542 91.0625 38C94.0208 34.4792 98.0625 32.7188 103.188 32.7188C105.562 32.7188 107.771 33.1979 109.812 34.1562C111.854 35.0938 113.531 36.5104 114.844 38.4062L115.875 32.0312C115.938 31.6354 116.115 31.3125 116.406 31.0625C116.719 30.8125 117.104 30.6875 117.562 30.6875C118.021 30.6875 118.396 30.8646 118.688 31.2188C118.979 31.5729 119.125 31.9271 119.125 32.2812V32.5312L117.156 45.25ZM136.625 38.875C135.833 39 134.396 39.0625 132.312 39.0625H132.062V62.0312C132.458 61.9896 132.844 61.9688 133.219 61.9688C133.219 61.9688 134.354 61.9688 136.625 61.9688V38.875ZM154.094 45.8125C154.219 45.5417 154.281 45.1667 154.281 44.6875C154.281 44.2083 154.052 43.75 153.594 43.3125C153.156 42.8542 152.615 42.625 151.969 42.625C151.323 42.625 150.771 42.8542 150.312 43.3125C149.875 43.75 149.656 44.2083 149.656 44.6875C149.656 45.1667 149.719 45.5417 149.844 45.8125C149.969 46.0833 150.135 46.3333 150.344 46.5625C150.781 47.0208 151.323 47.25 151.969 47.25C152.948 47.25 153.656 46.7708 154.094 45.8125ZM139.938 39.1875C142.021 36.2917 144.771 34.8438 148.188 34.8438C151.021 34.9271 153.312 35.7917 155.062 37.4375C156.854 39.0833 157.75 41.2396 157.75 43.9062C157.75 45.6771 157.229 47.2083 156.188 48.5C155.104 49.8333 153.698 50.5 151.969 50.5C150.427 50.5 149.115 49.9583 148.031 48.875C146.948 47.7917 146.406 46.4792 146.406 44.9375C146.406 43.4167 146.948 42.1042 148.031 41C149.115 39.875 150.427 39.3125 151.969 39.3125C152.073 39.3125 152.167 39.3229 152.25 39.3438C152.354 39.3646 152.458 39.375 152.562 39.375C151.458 38.5208 150.156 38.0938 148.656 38.0938C147.156 38.0938 145.969 38.3438 145.094 38.8438C144.219 39.3229 143.469 39.9375 142.844 40.6875C142.24 41.4167 141.75 42.2188 141.375 43.0938C141 43.9479 140.708 44.75 140.5 45.5C140.125 46.7708 139.938 47.7396 139.938 48.4062L139.875 62.2812C140.604 62.3438 141.333 62.4375 142.062 62.5625C142.812 62.6875 143.479 62.8125 144.062 62.9375C145.146 63.1458 145.688 63.6979 145.688 64.5938C145.688 65.0521 145.51 65.4375 145.156 65.75C144.802 66.0417 144.427 66.1875 144.031 66.1875H143.719C140.24 65.5417 137.125 65.2188 134.375 65.2188C131.667 65.2188 128.573 65.5417 125.094 66.1875H124.781C124.302 66.1875 123.917 66.0312 123.625 65.7188C123.333 65.3854 123.188 65.0208 123.188 64.625C123.188 63.7292 123.615 63.1667 124.469 62.9375C125.198 62.8125 125.927 62.6875 126.656 62.5625C127.385 62.4375 128.104 62.3438 128.812 62.2812V39C126.062 38.875 124.458 38.7188 124 38.5312C123.583 38.4896 123.24 38.3229 122.969 38.0312C122.719 37.7188 122.594 37.3333 122.594 36.875C122.594 36.3958 122.771 36.0104 123.125 35.7188C123.5 35.4271 123.875 35.2812 124.25 35.2812H124.469C124.615 35.4271 125.719 35.5521 127.781 35.6562C129.865 35.7396 131.396 35.7812 132.375 35.7812C134.688 35.7812 136.208 35.6979 136.938 35.5312C137.667 35.3646 138.188 35.2812 138.5 35.2812C138.833 35.2812 139.156 35.4583 139.469 35.8125C139.781 36.1458 139.938 36.5208 139.938 36.9375V39.1875ZM172.812 37.8438C169.083 39.2812 166.625 41.9792 165.438 45.9375C165.021 47.3125 164.812 48.8646 164.812 50.5938C164.812 52.3229 165.01 53.875 165.406 55.25C165.802 56.625 166.333 57.8333 167 58.875C168.292 60.8125 170.083 62.25 172.375 63.1875C170.292 60.2917 169.25 56.0417 169.25 50.4375C169.25 44.8333 170.438 40.6354 172.812 37.8438ZM188.719 59.7812C189.698 58.5312 190.438 57.1042 190.938 55.5C191.458 53.8958 191.719 52.4167 191.719 51.0625C191.719 49.7083 191.604 48.5104 191.375 47.4688C191.146 46.4271 190.812 45.4167 190.375 44.4375C189.938 43.4583 189.406 42.5417 188.781 41.6875C188.156 40.8333 187.458 40.0833 186.688 39.4375C185 38.0833 183.156 37.4062 181.156 37.4062C177.115 37.4062 174.479 39.7812 173.25 44.5312C172.792 46.2812 172.562 47.9062 172.562 49.4062C172.562 50.8854 172.604 52.1458 172.688 53.1875C172.771 54.2083 172.917 55.2292 173.125 56.25C173.333 57.25 173.615 58.2188 173.969 59.1562C174.323 60.0938 174.781 60.9167 175.344 61.625C176.573 63.1667 178.146 63.9375 180.062 63.9375C182 63.9375 183.677 63.5625 185.094 62.8125C186.531 62.0417 187.74 61.0312 188.719 59.7812ZM194.969 50.7188C194.969 53.1146 194.521 55.3542 193.625 57.4375C192.729 59.5208 191.521 61.3125 190 62.8125C186.771 65.9583 182.854 67.5312 178.25 67.5312C173.188 67.5312 169.135 65.9896 166.094 62.9062C163.073 59.8438 161.562 55.7292 161.562 50.5625C161.562 45.6667 163.167 41.6042 166.375 38.375C169.542 35.1667 173.5 33.5625 178.25 33.5625C183.083 33.5625 187.104 35.25 190.312 38.625C193.417 41.875 194.969 45.9062 194.969 50.7188ZM214.281 64.2188C212.865 62.9896 212.156 61.4479 212.156 59.5938V23.75L207.688 25.0312V55.875C207.688 60.4167 209.083 63.0833 211.875 63.875C212.667 64.0833 213.469 64.1979 214.281 64.2188ZM215.438 34.4375C218.021 34.3542 220.615 34.2083 223.219 34H223.344C223.802 34 224.188 34.1667 224.5 34.5C224.812 34.8125 224.969 35.1771 224.969 35.5938C224.969 36.0104 224.823 36.3854 224.531 36.7188C224.26 37.0312 223.917 37.2083 223.5 37.25C220.312 37.5 217.625 37.6562 215.438 37.7188V59.5938C215.438 60.8438 216.073 61.7292 217.344 62.25C217.698 62.3958 218.104 62.4688 218.562 62.4688C219.042 62.4688 219.458 62.3229 219.812 62.0312C220.188 61.7188 220.5 61.3333 220.75 60.875C221.083 60.2708 221.354 59.5625 221.562 58.75C221.875 57.4792 222.469 56.8438 223.344 56.8438C223.823 56.8438 224.208 57.0312 224.5 57.4062C224.812 57.7604 224.969 58.125 224.969 58.5V58.8438C224.365 61.6146 223.177 63.7604 221.406 65.2812C219.635 66.7812 217.448 67.5312 214.844 67.5312C210.135 67.5312 206.958 65.6042 205.312 61.75C204.667 60.25 204.344 58.2917 204.344 55.875V37.6562C203.406 37.5938 202.458 37.5312 201.5 37.4688C200.562 37.4062 199.75 37.3333 199.062 37.25C197.812 37.125 197.188 36.5729 197.188 35.5938C197.188 35.1146 197.365 34.7292 197.719 34.4375C198.094 34.1458 198.469 34 198.844 34H198.969L204.344 34.375V23.75C204.344 23.3958 204.458 23.0729 204.688 22.7812C204.917 22.4688 205.208 22.2604 205.562 22.1562L213.375 20.0625C213.458 20 213.667 19.9688 214 19.9688C214.354 19.9688 214.677 20.1458 214.969 20.5C215.281 20.8542 215.438 21.2396 215.438 21.6562V34.4375ZM259.875 37.5938H258.625C258 37.5938 257.208 37.5521 256.25 37.4688L255.438 63.75C256.979 63.5 258.51 63.3333 260.031 63.25L260.531 37.5312C260.302 37.5729 260.083 37.5938 259.875 37.5938ZM254.844 34C255.969 34.1667 257.833 34.25 260.438 34.25C263.042 34.25 265.51 33.9583 267.844 33.375C268.323 33.375 268.719 33.5521 269.031 33.9062C269.344 34.2396 269.5 34.6042 269.5 35C269.5 35.3958 269.375 35.75 269.125 36.0625C268.896 36.375 268.49 36.5938 267.906 36.7188C267.344 36.8229 266.698 36.9271 265.969 37.0312C265.24 37.1146 264.521 37.2083 263.812 37.3125L263.312 63.1875C265.125 63.1875 266.438 63.2396 267.25 63.3438C268.583 63.5104 269.25 64.0729 269.25 65.0312C269.25 65.5521 269.073 65.9583 268.719 66.25C268.385 66.5625 268.031 66.7188 267.656 66.7188H267.469C262.865 66.1562 258.406 66.3646 254.094 67.3438H253.75C253.312 67.3438 252.927 67.1771 252.594 66.8438C252.26 66.5312 252.094 66.1667 252.094 65.75V65.6875L252.281 59.9688C249.594 64.8854 246.115 67.3438 241.844 67.3438C238.156 67.3438 235.396 65.6875 233.562 62.375C232.104 59.6875 231.375 56.5208 231.375 52.875C231.375 47.2292 232.438 42.0729 234.562 37.4062L228.938 37.25C228.479 37.2083 228.094 37.0417 227.781 36.75C227.49 36.4375 227.344 36.0625 227.344 35.625C227.344 35.1875 227.5 34.8125 227.812 34.5C228.125 34.1667 228.521 34 229 34L237.25 34.1875C237.708 34.25 238.083 34.4375 238.375 34.75C238.688 35.0417 238.844 35.3333 238.844 35.625C238.844 36 238.76 36.3542 238.594 36.6875C237.198 38.0833 236.042 41.75 235.125 47.6875C234.792 49.8542 234.625 51.5938 234.625 52.9062C234.625 54.2188 234.729 55.5417 234.938 56.875C235.167 58.1875 235.552 59.375 236.094 60.4375C237.323 62.875 239.219 64.0938 241.781 64.0938C244.344 64.0938 246.583 62.6667 248.5 59.8125C250.417 57 251.792 53.0938 252.625 48.0938L253 35.5312C253 35.0729 253.177 34.7083 253.531 34.4375C253.885 34.1458 254.26 34 254.656 34H254.844ZM285.531 39.0625C284.469 39.2292 283.042 39.3125 281.25 39.3125H281V62.8125C282.042 62.8125 282.938 62.8125 283.688 62.8125C284.458 62.8125 285.073 62.8333 285.531 62.875V39.0625ZM281.312 35.9688C283.562 35.9688 285.521 35.8021 287.188 35.4688C287.667 35.4688 288.062 35.6458 288.375 36C288.708 36.3333 288.875 36.7083 288.875 37.125V40.3438C291.312 36.7604 294.656 34.9688 298.906 34.9688C303.177 34.9688 305.958 37.5938 307.25 42.8438C307.708 44.6354 307.938 46.375 307.938 48.0625C307.938 49.75 307.885 51.2188 307.781 52.4688C307.677 53.6979 307.542 54.9271 307.375 56.1562C307.083 58.5938 306.719 60.6979 306.281 62.4688C307.073 62.5104 307.885 62.5521 308.719 62.5938C309.573 62.6354 310.333 62.6875 311 62.75C312.208 62.8958 312.812 63.5104 312.812 64.5938C312.771 65.0104 312.583 65.3646 312.25 65.6562C311.917 65.9271 311.542 66.0625 311.125 66.0625H311C309 65.8542 306.812 65.75 304.438 65.75C302.083 65.75 299.875 65.9792 297.812 66.4375C297.375 66.4375 296.99 66.2708 296.656 65.9375C296.323 65.5833 296.156 65.2083 296.156 64.8125C296.156 64.4167 296.281 64.0625 296.531 63.75C296.802 63.4375 297.25 63.2292 297.875 63.125C298.812 62.9375 300.479 62.7396 302.875 62.5312C303.562 60.1562 304.031 57.5729 304.281 54.7812C304.531 51.9688 304.656 50.0521 304.656 49.0312C304.656 41.8229 302.74 38.2188 298.906 38.2188C296.156 38.2188 293.771 39.4792 291.75 42C289.833 44.3542 288.875 46.8125 288.875 49.375V49.4375L288.812 63.1875C289.188 63.2292 289.552 63.2708 289.906 63.3125C290.26 63.3333 290.625 63.375 291 63.4375C291.396 63.4792 291.729 63.6562 292 63.9688C292.292 64.2604 292.438 64.625 292.438 65.0625C292.438 65.5 292.26 65.8854 291.906 66.2188C291.573 66.5521 291.281 66.7188 291.031 66.7188C290.781 66.7188 290.635 66.6875 290.594 66.625C286.844 66.25 284.26 66.0625 282.844 66.0625C280.073 66.0625 277.885 66.2083 276.281 66.5C274.677 66.8125 273.719 66.9688 273.406 66.9688C273.115 66.9688 272.823 66.7917 272.531 66.4375C272.24 66.0833 272.094 65.7083 272.094 65.3125C272.094 64.9167 272.208 64.5625 272.438 64.25C272.667 63.9375 273.073 63.7292 273.656 63.625C274.823 63.3958 276.177 63.2083 277.719 63.0625V39.1875C274.927 39.0625 273.333 38.9167 272.938 38.75C272.521 38.7083 272.177 38.5312 271.906 38.2188C271.656 37.9062 271.531 37.5208 271.531 37.0625C271.531 36.6042 271.708 36.2292 272.062 35.9375C272.417 35.625 272.708 35.4688 272.938 35.4688C273.188 35.4688 273.323 35.4792 273.344 35.5C273.385 35.5208 273.635 35.5521 274.094 35.5938C274.552 35.6354 275.146 35.6875 275.875 35.75C277.604 35.8958 279.417 35.9688 281.312 35.9688ZM327.031 38.0312C321.552 40.0104 318.812 44.1667 318.812 50.5C318.812 54.4792 320.188 57.8125 322.938 60.5C323.792 61.3333 324.771 62.0312 325.875 62.5938C324.083 59.9271 323.188 56.2812 323.188 51.6562C323.188 48.3854 323.427 45.9479 323.906 44.3438C324.656 41.8021 325.698 39.6979 327.031 38.0312ZM326.5 50.3125C328.833 51.0417 331.51 51.4062 334.531 51.4062C337.552 51.4062 340.49 50.7708 343.344 49.5V48.9688C343.344 43.9271 341.729 40.4479 338.5 38.5312C337.375 37.8646 336.021 37.4167 334.438 37.1875C329.354 37.7708 326.708 42.1458 326.5 50.3125ZM346.594 48.9062L346.531 50.7188C346.323 52.4479 343.573 53.6771 338.281 54.4062C336.594 54.6354 334.802 54.75 332.906 54.75C331.031 54.75 328.917 54.4271 326.562 53.7812C327.021 58.5104 328.604 61.7083 331.312 63.375C332.312 63.9792 333.292 64.2812 334.25 64.2812C335.229 64.2812 336.052 64.2188 336.719 64.0938C337.385 63.9479 338.042 63.75 338.688 63.5C340.146 62.8958 341.167 62.1667 341.75 61.3125C342.104 60.8958 342.51 60.6875 342.969 60.6875C343.448 60.6875 343.854 60.8646 344.188 61.2188C344.521 61.5521 344.688 61.9375 344.688 62.375C344.688 62.7917 344.552 63.125 344.281 63.375C343.385 64.7708 341.719 65.875 339.281 66.6875C334.76 68.1667 330.417 68.0417 326.25 66.3125C321.875 64.5208 318.771 61.5 316.938 57.25C316.021 55.1667 315.562 52.8646 315.562 50.3438C315.562 47.8021 315.958 45.5 316.75 43.4375C317.542 41.3542 318.667 39.6042 320.125 38.1875C323.104 35.2708 327.219 33.8125 332.469 33.8125C341.885 34.2083 346.594 39.2396 346.594 48.9062Z" fill="white"/>
<path d="M294.338 90.2427C294.766 90.178 295.047 90.5917 295.182 91.484C295.196 91.5789 295.207 91.6793 295.213 91.7851C295.333 91.8058 295.502 91.7996 295.72 91.7665C295.938 91.7335 296.119 91.6138 296.263 91.4076C296.406 91.2013 296.466 91.0223 296.443 90.8704C296.438 90.8325 296.458 90.8051 296.504 90.7885C296.548 90.7623 296.591 90.7558 296.632 90.769C296.682 90.7808 296.71 90.8057 296.716 90.8437C296.758 91.1189 296.679 91.3979 296.479 91.6807C296.288 91.962 295.999 92.1321 295.609 92.1911C295.505 92.2069 295.385 92.2154 295.249 92.2165C295.271 92.8735 295.216 93.5372 295.085 94.2076C294.952 94.8686 294.731 95.4604 294.422 95.983C294.121 96.4947 293.771 96.7808 293.372 96.8412C292.432 96.9836 291.864 96.4046 291.667 95.1042C291.545 94.2974 291.54 93.1136 291.653 91.5526C291.774 89.9807 292.026 88.5008 292.408 87.1127C292.79 85.7246 293.242 84.991 293.764 84.9119C294.162 84.8515 294.399 85.068 294.474 85.5616C294.5 85.7325 294.506 85.9354 294.493 86.1704C294.45 87.0994 294.173 88.0929 293.663 89.1508C293.279 89.9469 292.896 90.4613 292.513 90.694C292.35 92.884 292.334 94.4109 292.465 95.2746C292.594 96.1289 292.887 96.5215 293.342 96.4524C293.836 96.3777 294.218 95.8877 294.489 94.9825C294.769 94.0759 294.907 93.1325 294.904 92.1523C294.578 92.0464 294.328 91.8415 294.156 91.5375C294.051 91.3591 293.989 91.2035 293.969 91.0707C293.947 90.9283 293.947 90.802 293.97 90.6919C294.007 90.4241 294.13 90.2744 294.338 90.2427ZM294.165 85.6375C294.122 85.3528 294.014 85.2186 293.842 85.235C293.547 85.2796 293.288 85.7801 293.064 86.7364C292.84 87.6928 292.668 88.8646 292.548 90.2518C293.019 89.831 293.423 89.0707 293.761 87.9708C294.099 86.8709 294.234 86.0931 294.165 85.6375ZM297.594 102.013C296.693 102.149 296.172 101.757 296.032 100.836C295.95 100.295 296.066 99.6808 296.379 98.9925C296.828 97.9826 297.524 97.2558 298.467 96.812C298.802 96.6543 299.159 96.5468 299.539 96.4892C299.606 96.4792 299.649 96.5406 299.669 96.6735C299.689 96.8063 299.666 96.8778 299.6 96.8879C298.48 97.0576 297.607 97.6414 296.981 98.6391C296.522 99.3884 296.339 100.072 296.432 100.688C296.526 101.305 296.817 101.625 297.306 101.648L297.536 101.628C298.324 101.509 298.905 101.081 299.279 100.345C299.539 99.8197 299.712 99.2982 299.799 98.7802C299.896 98.2702 299.961 97.8624 299.992 97.5566C300.033 97.2494 300.069 96.8459 300.1 96.346C300.133 95.8556 300.152 95.44 300.159 95.0991C300.175 94.7569 300.193 94.2686 300.213 93.6344C300.242 92.9892 300.262 92.4813 300.274 92.1105L300.188 92.1235C299.404 94.6989 298.641 96.0427 297.901 96.1549C297.265 96.2513 296.884 95.8866 296.759 95.0608C296.669 94.4628 296.745 93.2328 296.987 91.3707C297.039 90.9453 297.078 90.6286 297.105 90.4207C297.13 90.2032 297.205 90.0851 297.328 90.0664C297.499 90.0405 297.641 90.1452 297.754 90.3805C297.808 90.4792 297.847 90.6092 297.872 90.7705C297.895 90.9224 297.897 91.0969 297.878 91.2939C297.858 91.4814 297.811 91.8477 297.739 92.3928C297.543 93.8594 297.482 94.8347 297.556 95.3188C297.603 95.632 297.722 95.7742 297.912 95.7455C298.14 95.7109 298.387 95.455 298.655 94.9775C298.932 94.4986 299.185 93.9262 299.414 93.2603C299.833 92.0512 300.154 90.9344 300.377 89.9102C300.423 89.6994 300.503 89.5853 300.617 89.5681C300.778 89.5436 300.915 89.649 301.029 89.8843C301.087 90.0114 301.128 90.1557 301.153 90.317C301.177 90.4784 301.167 90.9557 301.122 91.749C301.087 92.5408 301.041 93.3002 300.987 94.027C300.941 94.7524 300.862 95.6091 300.75 96.5971C300.647 97.5836 300.517 98.3267 300.359 98.8263C300.212 99.3245 300.013 99.8401 299.764 100.373C299.524 100.905 299.223 101.29 298.861 101.529C298.501 101.778 298.078 101.939 297.594 102.013ZM320.217 80.8597C320.293 80.8481 320.353 80.8632 320.398 80.905C320.443 80.9467 320.477 81.0095 320.5 81.0935C319.513 81.2431 318.723 81.8628 318.131 82.9526C318.652 83.0582 319.152 83.1279 319.633 83.1618C320.045 82.4197 320.465 82.0163 320.892 81.9516C320.987 81.9372 321.072 81.9535 321.147 82.0004C321.22 82.0378 321.279 82.1065 321.324 82.2066C320.954 82.2627 320.609 82.582 320.289 83.1644C320.357 83.1638 320.457 83.1535 320.59 83.1333C321.53 82.9909 322.147 82.611 322.442 81.9934C322.57 81.7507 322.623 81.5534 322.6 81.4015C322.535 80.9744 322.313 80.7896 321.933 80.8471C321.999 80.7013 322.126 80.614 322.316 80.5852C322.686 80.5291 322.956 80.6775 323.126 81.0305C323.172 81.14 323.203 81.247 323.219 81.3514C323.266 81.6647 323.18 81.9933 322.96 82.3373C322.573 82.9203 321.895 83.2852 320.927 83.4319C320.642 83.475 320.383 83.4949 320.149 83.4914C319.667 84.6034 319.373 86.1238 319.268 88.0526C319.189 89.3947 319.217 90.5071 319.351 91.3898C319.408 91.7695 319.484 92.1076 319.577 92.4041C320.055 91.9045 320.493 91.2993 320.89 90.5886C321.287 89.8779 321.562 89.2924 321.716 88.8322L321.946 88.1419L322.331 88.0836C322.285 88.2945 322.167 88.6376 321.977 89.1131C321.795 89.5776 321.61 89.9939 321.424 90.3621C321.245 90.7193 321 91.1253 320.691 91.5801C320.381 92.0348 320.057 92.4286 319.719 92.7614C319.897 93.1033 320.1 93.2571 320.328 93.2225C320.262 93.4268 320.138 93.5425 319.958 93.5699C319.654 93.6159 319.381 93.5116 319.139 93.2571C318.509 93.7118 317.871 93.9881 317.225 94.0859C316.286 94.2283 315.437 94.1045 314.678 93.7145C313.854 95.0045 312.74 95.756 311.335 95.9688C309.931 96.1817 308.835 95.838 308.048 94.9377C307.612 94.431 307.345 93.8548 307.247 93.2094C307.207 92.9436 307.194 92.6688 307.209 92.3849C307.269 91.434 307.621 90.7108 308.264 90.2152C308.603 89.9503 309 89.7833 309.455 89.7143C310.433 89.5661 311.15 89.8458 311.607 90.5534C311.797 90.845 311.917 91.157 311.967 91.4892C312.016 91.8119 311.999 92.1494 311.917 92.5018C311.715 93.348 311.249 93.8264 310.518 93.9372C310.404 93.9545 310.305 93.9451 310.222 93.9092C310.138 93.8637 310.068 93.7917 310.015 93.693C310.271 93.6542 310.503 93.5511 310.711 93.3837C311.056 93.0983 311.292 92.6401 311.42 92.0091C311.447 91.8011 311.451 91.6354 311.432 91.5121C311.412 91.3792 311.38 91.2335 311.336 91.075C311.292 90.907 311.2 90.7218 311.063 90.5193C310.925 90.3168 310.719 90.1686 310.442 90.0745C310.166 89.9805 309.852 89.9601 309.501 90.0133C308.599 90.1499 307.995 90.6492 307.689 91.5113C307.511 92.0043 307.453 92.4548 307.515 92.863C307.577 93.2711 307.675 93.6301 307.809 93.9398C308.193 94.8041 308.804 95.3475 309.644 95.5698C310.038 95.675 310.459 95.6939 310.905 95.6263C312.186 95.4321 313.256 94.6776 314.115 93.3629C313.586 92.9478 313.185 92.4116 312.91 91.7541C312.746 91.3712 312.639 91.0232 312.592 90.71C312.442 89.7229 312.608 88.8966 313.09 88.2314C313.445 87.7504 313.921 87.4647 314.519 87.3741C315.126 87.282 315.694 87.3464 316.223 87.5673C316.77 85.4745 317.247 84.0089 317.654 83.1705C317.585 83.1616 317.324 83.1088 316.873 83.0122C316.431 82.9141 316.15 82.8547 316.03 82.834L315.312 82.7098C314.474 82.5648 313.752 82.5384 313.145 82.6304C311.911 82.8174 311.07 83.4206 310.622 84.4399C310.36 85.0137 310.271 85.5806 310.356 86.1407C310.38 86.302 310.424 86.4652 310.488 86.6303C310.686 87.2315 311.017 87.5599 311.482 87.6157C311.572 87.6313 311.664 87.6318 311.759 87.6174C311.734 87.8349 311.593 87.963 311.337 88.0019C310.758 88.0896 310.303 87.843 309.972 87.262C309.814 86.985 309.707 86.6662 309.653 86.3055C309.598 85.9448 309.632 85.527 309.754 85.0521C310.007 84.0331 310.61 83.2717 311.563 82.7681C312.013 82.5348 312.443 82.3872 312.851 82.3254C313.268 82.2621 313.614 82.2341 313.887 82.2412C314.168 82.2375 314.507 82.2686 314.906 82.3344C315.303 82.3908 315.591 82.4345 315.77 82.4656C315.959 82.4952 316.32 82.5715 316.854 82.6946C317.395 82.8068 317.706 82.8714 317.786 82.8883C318.438 81.6826 319.248 81.0064 320.217 80.8597ZM318.923 92.984C318.704 92.6288 318.553 92.1807 318.471 91.6396C318.388 91.0891 318.178 90.4752 317.843 89.7978C317.505 89.111 317.084 88.5728 316.578 88.1834C316.06 90.5923 315.498 92.3281 314.892 93.3909C315.551 93.7668 316.307 93.8901 317.161 93.7606C317.769 93.6686 318.356 93.4097 318.923 92.984ZM316.128 87.9021C315.728 87.7005 315.287 87.6364 314.803 87.7097C314.328 87.7816 313.933 88.026 313.617 88.4428C313.168 89.0643 313.009 89.8117 313.142 90.685C313.288 91.6531 313.682 92.4236 314.322 92.9966C314.812 92.1262 315.245 91.0459 315.622 89.7556C315.754 89.2793 315.923 88.6615 316.128 87.9021ZM318.322 89.8854C318.304 88.7424 318.401 87.5868 318.612 86.4188C318.822 85.2412 319.115 84.2551 319.489 83.4604C319.076 83.4259 318.575 83.3514 317.984 83.2369C317.639 83.9689 317.326 84.9145 317.045 86.0737C316.964 86.4355 316.838 87.0129 316.667 87.8059C317.334 88.2388 317.886 88.9319 318.322 89.8854ZM322.376 92.4462C322.11 92.4864 321.946 92.3025 321.884 91.8944C321.851 91.6761 321.876 90.0459 321.959 87.004C321.967 86.7989 322.037 86.6863 322.17 86.6662C322.341 86.6403 322.487 86.7443 322.61 86.9781C322.678 87.1038 322.724 87.2473 322.748 87.4087C322.771 87.5605 322.778 87.7295 322.767 87.9156L322.716 89.1176L322.787 89.1068C323.316 87.0848 323.922 86.022 324.605 85.9184C324.985 85.8609 325.264 86.0079 325.444 86.3594C325.513 86.4945 325.562 86.6571 325.591 86.8469C325.618 87.0272 325.596 87.2345 325.525 87.4686C325.4 87.8661 325.158 88.0922 324.797 88.1468C324.721 88.1583 324.657 88.1487 324.604 88.1179C324.56 88.0857 324.528 88.0371 324.509 87.9721C324.585 87.9606 324.663 87.8079 324.745 87.5139C324.825 87.2105 324.857 86.9387 324.84 86.6985C324.823 86.4583 324.721 86.3329 324.535 86.3223C324.203 86.3726 323.875 86.8642 323.55 87.797C323.225 88.7297 322.985 89.6109 322.829 90.4404C322.673 91.2699 322.589 91.8069 322.578 92.0514C322.566 92.2959 322.499 92.4275 322.376 92.4462ZM327.206 89.7917C327.357 90.7883 327.698 91.2464 328.23 91.1658C328.59 91.1112 328.894 90.8371 329.139 90.3435C329.611 89.4176 329.809 88.2612 329.735 86.8743C329.381 86.7822 329.113 86.5849 328.932 86.2824C328.816 86.096 328.748 85.9363 328.728 85.8035C328.706 85.6611 328.707 85.5348 328.729 85.4247C328.775 85.1554 328.913 85.0036 329.14 84.9691C329.368 84.9345 329.561 85.0558 329.72 85.3327C329.886 85.5988 330.003 85.9549 330.071 86.401C330.075 86.4295 330.08 86.4627 330.086 86.5006C330.206 86.5214 330.375 86.5152 330.593 86.4821C330.821 86.4476 331.007 86.3272 331.15 86.121C331.294 85.9147 331.354 85.7357 331.331 85.5838C331.325 85.5458 331.345 85.5185 331.391 85.5018C331.436 85.4757 331.478 85.4692 331.519 85.4824C331.57 85.4942 331.598 85.5191 331.603 85.5571C331.645 85.8323 331.566 86.1113 331.366 86.3941C331.176 86.6754 330.886 86.8455 330.497 86.9045C330.402 86.9188 330.277 86.9281 330.122 86.9321C330.163 87.5861 330.123 88.2477 330.001 88.9167C329.887 89.5748 329.675 90.1652 329.366 90.6878C329.055 91.2009 328.682 91.4906 328.245 91.5567C327.419 91.6819 326.845 91.3174 326.521 90.4635C326.435 90.2144 326.372 89.957 326.331 89.6912C326.241 89.0932 326.281 88.4317 326.453 87.7066C326.678 86.7597 327.04 86.1369 327.539 85.838C327.8 85.7014 327.987 85.6584 328.102 85.709C328.216 85.7596 328.294 85.8255 328.336 85.9066C327.899 85.9727 327.572 86.4399 327.354 87.3079C327.136 88.176 327.086 89.0039 327.206 89.7917ZM332.546 90.905C332.28 90.9453 332.116 90.7614 332.054 90.3532C332.021 90.1349 332.046 88.5048 332.129 85.4629C332.127 85.2592 332.198 85.1466 332.34 85.125C332.511 85.0991 332.658 85.2031 332.781 85.437C332.848 85.5626 332.894 85.7062 332.919 85.8675C332.942 86.0194 332.948 86.1884 332.937 86.3745L332.882 87.548L332.967 87.535C333.531 85.4883 334.202 84.4059 334.98 84.288C335.284 84.242 335.531 84.3016 335.721 84.467C335.91 84.6229 336.029 84.8622 336.078 85.1849C336.126 85.5077 336.104 86.2247 336.01 87.3361C335.917 88.4475 335.901 89.212 335.965 89.6296C336.058 90.2466 336.219 90.5378 336.447 90.5033C336.457 90.5697 336.424 90.6426 336.349 90.722C336.273 90.8014 336.179 90.8497 336.065 90.867C335.514 90.9504 335.174 90.5603 335.043 89.6965C334.962 89.165 334.983 88.3414 335.105 87.2257C335.235 86.099 335.278 85.3886 335.234 85.0943C335.188 84.7906 335.046 84.6567 334.809 84.6927C334.467 84.7445 334.122 85.2531 333.773 86.2187C333.433 87.1828 333.178 88.0953 333.008 88.9562C332.845 89.8061 332.756 90.3391 332.74 90.5551C332.734 90.7697 332.669 90.8863 332.546 90.905ZM344.879 79.7586L347.338 79.5463C347.636 78.4426 348.142 77.8369 348.854 77.729C348.987 77.7089 349.086 77.7569 349.152 77.8731L349.175 77.9279C348.596 78.0156 348.204 78.5071 348 79.4022C348.936 79.105 349.548 78.5948 349.836 77.8714C349.948 77.5826 349.992 77.3575 349.967 77.1962C349.91 76.8165 349.748 76.6468 349.482 76.6871C349.515 76.5171 349.616 76.4192 349.787 76.3933C350.11 76.3444 350.305 76.543 350.373 76.9891C350.439 77.4257 350.328 77.8794 350.04 78.3503C349.621 79.0449 348.916 79.5206 347.926 79.7775C347.821 80.4926 347.779 81.3727 347.802 82.4179C347.824 83.4632 347.835 84.0489 347.835 84.1752C348.157 83.8643 348.715 83.3477 349.508 82.6254C350.302 81.9032 350.818 81.4317 351.056 81.2111C351.249 79.5993 351.605 78.2345 352.125 77.1168C352.655 75.9976 353.294 75.3812 354.044 75.2676C354.301 75.2287 354.512 75.2792 354.679 75.419C354.855 75.5573 354.963 75.7546 355.002 76.0109C355.107 76.7038 354.882 77.4613 354.326 78.2833C353.771 79.1054 352.964 80.0239 351.904 81.039C351.737 82.8217 351.775 84.5151 352.018 86.1192C352.234 87.5429 352.599 88.5751 353.114 89.2156C353.52 89.7172 353.998 89.9263 354.549 89.8429C354.521 90.0413 354.402 90.1564 354.193 90.188C353.557 90.2844 353.006 90.1058 352.539 89.6522C351.836 88.9821 351.356 87.8022 351.1 86.1127C350.901 84.8029 350.864 83.4007 350.987 81.9062C349.057 83.655 348.012 84.6047 347.85 84.7555C347.855 86.7064 347.686 88.0622 347.345 88.8227C347.016 89.5328 346.524 89.9375 345.869 90.0368C345.565 90.0828 345.307 90.015 345.095 89.8336C344.883 89.6521 344.751 89.3857 344.697 89.0345C344.552 88.0759 345.29 86.7649 346.912 85.1015C346.939 82.5244 347.051 80.7937 347.247 79.9095L345.102 80.0744C343.953 80.2484 343.199 80.8095 342.837 81.7575C342.666 82.2301 342.614 82.6847 342.68 83.1213C342.714 83.3491 342.777 83.5678 342.867 83.7775C343.149 84.4241 343.556 84.7071 344.088 84.6265C344.099 84.7025 344.072 84.7794 344.006 84.8574C343.95 84.9339 343.865 84.9808 343.751 84.998C343.143 85.0901 342.673 84.8408 342.341 84.2504C342.195 83.9909 342.095 83.6856 342.042 83.3344C341.989 82.9832 342.028 82.5695 342.16 82.0932C342.414 81.142 342.981 80.4637 343.861 80.0585C344.17 79.9146 344.509 79.8147 344.879 79.7586ZM354.629 76.0528C354.575 75.6921 354.395 75.5348 354.092 75.5808C353.598 75.6556 353.166 76.1338 352.794 77.0154C352.431 77.886 352.166 78.9846 351.998 80.3111C352.901 79.4169 353.587 78.6236 354.055 77.9313C354.521 77.2295 354.713 76.6033 354.629 76.0528ZM345.07 88.9927C345.149 89.5147 345.388 89.7455 345.786 89.6851C346.194 89.6233 346.474 89.2557 346.624 88.5824C346.775 87.909 346.866 86.9436 346.899 85.6861C345.559 87.0932 344.949 88.1954 345.07 88.9927ZM355.118 85.5621C355.269 86.5588 355.61 87.0168 356.142 86.9363C356.502 86.8816 356.805 86.6075 357.051 86.1139C357.522 85.188 357.721 84.0316 357.647 82.6447C357.293 82.5527 357.025 82.3554 356.843 82.0528C356.728 81.8664 356.66 81.7068 356.64 81.5739C356.618 81.4315 356.618 81.3052 356.641 81.1951C356.687 80.9259 356.824 80.774 357.052 80.7395C357.28 80.705 357.473 80.8262 357.632 81.1032C357.798 81.3692 357.915 81.7253 357.983 82.1714C357.987 82.1999 357.992 82.2331 357.998 82.2711C358.118 82.2918 358.287 82.2856 358.505 82.2525C358.733 82.218 358.918 82.0976 359.062 81.8914C359.205 81.6851 359.266 81.5061 359.243 81.3542C359.237 81.3163 359.257 81.2889 359.303 81.2723C359.348 81.2461 359.39 81.2396 359.431 81.2528C359.481 81.2646 359.51 81.2895 359.515 81.3275C359.557 81.6027 359.478 81.8817 359.278 82.1645C359.088 82.4458 358.798 82.6159 358.409 82.6749C358.314 82.6893 358.189 82.6985 358.034 82.7025C358.075 83.3566 358.034 84.0181 357.913 84.6871C357.799 85.3452 357.587 85.9356 357.278 86.4582C356.967 86.9713 356.594 87.261 356.157 87.3271C355.331 87.4523 354.757 87.0879 354.433 86.2339C354.347 85.9848 354.283 85.7274 354.243 85.4616C354.153 84.8637 354.193 84.2021 354.365 83.477C354.59 82.5301 354.952 81.9073 355.451 81.6084C355.712 81.4718 355.899 81.4288 356.014 81.4794C356.128 81.53 356.206 81.5959 356.248 81.677C355.811 81.7432 355.484 82.2103 355.266 83.0783C355.048 83.9464 354.998 84.7743 355.118 85.5621ZM360.458 86.6754C360.192 86.7157 360.028 86.5318 359.966 86.1236C359.933 85.9053 359.958 84.2752 360.041 81.2333C360.039 81.0296 360.109 80.917 360.252 80.8955C360.423 80.8696 360.57 80.9735 360.692 81.2074C360.76 81.3331 360.806 81.4766 360.83 81.6379C360.853 81.7898 360.86 81.9588 360.849 82.1449L360.799 83.2593L360.885 83.2464C361.435 81.2404 362.1 80.1785 362.878 80.0606C363.144 80.0203 363.367 80.0836 363.548 80.2504C363.738 80.4158 363.853 80.6313 363.893 80.8971C363.968 81.3907 363.986 82.0191 363.946 82.7825L364.003 82.7739C364.544 80.8957 365.203 79.8976 365.981 79.7796C366.238 79.7408 366.461 79.8041 366.651 79.9695C366.841 80.1348 366.96 80.3741 367.007 80.6874C367.055 81.0006 367.032 81.6837 366.939 82.7367C366.856 83.7883 366.846 84.5229 366.909 84.9405C367.003 85.5575 367.163 85.8487 367.391 85.8142C367.401 85.8806 367.368 85.9535 367.293 86.0329C367.218 86.1123 367.123 86.1606 367.009 86.1779C366.459 86.2613 366.118 85.8711 365.987 85.0074C365.905 84.4664 365.925 83.6672 366.046 82.6099C366.166 81.5431 366.204 80.8673 366.161 80.5825C366.117 80.2883 365.999 80.1556 365.81 80.1843C365.458 80.2376 365.11 80.7272 364.765 81.6534C364.428 82.5686 364.176 83.437 364.009 84.2585C363.852 85.0785 363.767 85.606 363.754 85.841C363.74 86.0665 363.671 86.1886 363.547 86.2073C363.281 86.2475 363.118 86.0636 363.056 85.6555C363.033 85.5036 363.032 84.9551 363.054 84.01C363.111 82.273 363.115 81.2431 363.067 80.9204C363.016 80.5882 362.896 80.4365 362.706 80.4653C362.45 80.5041 362.191 80.8152 361.93 81.3985C361.668 81.9723 361.451 82.6265 361.281 83.3611C360.904 84.9134 360.696 85.9111 360.657 86.354C360.647 86.5496 360.581 86.6567 360.458 86.6754ZM371.539 78.5442C371.966 78.4795 372.247 78.8932 372.383 79.7854C372.397 79.8804 372.407 79.9807 372.414 80.0866C372.533 80.1073 372.702 80.1011 372.921 80.068C373.139 80.035 373.32 79.9153 373.463 79.7091C373.607 79.5028 373.667 79.3238 373.644 79.1719C373.638 79.134 373.659 79.1066 373.705 79.0899C373.749 79.0638 373.792 79.0573 373.833 79.0705C373.883 79.0823 373.911 79.1072 373.917 79.1452C373.959 79.4204 373.879 79.6994 373.68 79.9822C373.489 80.2635 373.199 80.4336 372.81 80.4926C372.706 80.5084 372.586 80.5169 372.45 80.518C372.472 81.175 372.417 81.8387 372.286 82.5091C372.153 83.1701 371.932 83.7619 371.622 84.2845C371.321 84.7962 370.971 85.0823 370.573 85.1427C369.633 85.2851 369.065 84.7061 368.868 83.4057C368.745 82.5989 368.741 81.4151 368.854 79.8541C368.975 78.2822 369.226 76.8022 369.608 75.4142C369.99 74.0261 370.442 73.2925 370.964 73.2134C371.363 73.1529 371.6 73.3695 371.675 73.8631C371.7 74.0339 371.707 74.2369 371.694 74.4719C371.65 75.4009 371.374 76.3944 370.864 77.4523C370.48 78.2484 370.096 78.7628 369.714 78.9955C369.551 81.1855 369.535 82.7124 369.665 83.5761C369.795 84.4304 370.087 84.823 370.543 84.7539C371.037 84.6791 371.419 84.1892 371.689 83.284C371.969 82.3774 372.108 81.434 372.105 80.4538C371.778 80.3479 371.529 80.143 371.357 79.839C371.252 79.6606 371.19 79.505 371.169 79.3722C371.148 79.2298 371.148 79.1035 371.17 78.9933C371.207 78.7256 371.33 78.5759 371.539 78.5442ZM371.366 73.939C371.322 73.6543 371.215 73.5201 371.042 73.5365C370.748 73.5811 370.489 74.0816 370.265 75.0379C370.041 75.9943 369.869 77.1661 369.749 78.5533C370.219 78.1325 370.624 77.3722 370.962 76.2723C371.3 75.1724 371.435 74.3946 371.366 73.939ZM374.772 82.3799C374.946 83.5284 375.442 84.0408 376.258 83.9171C376.562 83.871 376.859 83.69 377.151 83.3739C377.451 83.0468 377.71 82.6726 377.928 82.2513C378.403 81.286 378.722 80.5094 378.886 79.9215L379.01 79.4948L379.395 79.4365C379.291 79.8406 379.125 80.3464 378.897 80.9539C378.667 81.5519 378.438 82.0623 378.211 82.4851C377.984 82.9079 377.699 83.3054 377.358 83.6776C377.015 84.0403 376.667 84.2483 376.316 84.3015C374.911 84.5144 374.09 83.833 373.851 82.2574C373.74 81.5265 373.843 80.7633 374.159 79.9677C374.594 78.8629 375.243 78.2451 376.107 78.1142C376.714 78.0222 377.068 78.3083 377.169 78.9728C377.244 79.4663 377.132 80.0076 376.833 80.5967C376.41 81.3986 375.844 81.8583 375.134 81.9756C375.029 81.9914 374.956 81.954 374.913 81.8634L374.89 81.8087C375.383 81.7339 375.804 81.3399 376.153 80.6269C376.509 79.903 376.654 79.3227 376.588 78.8861C376.543 78.5918 376.407 78.4619 376.179 78.4965C375.676 78.5727 375.273 79.0853 374.97 80.0341C374.723 80.8386 374.657 81.6205 374.772 82.3799ZM379.451 83.7974C379.185 83.8377 379.021 83.6537 378.959 83.2456C378.926 83.0273 378.951 81.3971 379.034 78.3552C379.042 78.1501 379.112 78.0375 379.245 78.0174C379.416 77.9915 379.562 78.0955 379.685 78.3293C379.753 78.455 379.799 78.5985 379.823 78.7599C379.846 78.9118 379.852 79.0807 379.842 79.2668L379.791 80.4688L379.862 80.458C380.391 78.436 380.997 77.3732 381.68 77.2697C382.06 77.2121 382.339 77.3591 382.519 77.7106C382.588 77.8458 382.637 78.0083 382.666 78.1981C382.693 78.3784 382.671 78.5857 382.6 78.8198C382.475 79.2173 382.233 79.4434 381.872 79.498C381.796 79.5095 381.732 79.4999 381.678 79.4691C381.635 79.4369 381.603 79.3883 381.584 79.3233C381.66 79.3118 381.738 79.1591 381.82 78.8651C381.9 78.5617 381.932 78.2899 381.915 78.0497C381.898 77.8095 381.796 77.6841 381.61 77.6735C381.278 77.7238 380.95 78.2154 380.625 79.1482C380.3 80.0809 380.06 80.9621 379.904 81.7916C379.748 82.6211 379.664 83.1581 379.653 83.4026C379.641 83.6471 379.574 83.7787 379.451 83.7974ZM387.266 77.297C387.504 77.2611 387.653 77.4424 387.713 77.8411C387.756 78.1258 387.725 78.9753 387.618 80.3896C387.511 81.7943 387.401 82.9615 387.29 83.8911C387.178 84.8208 387.046 85.5157 386.892 85.9759C386.74 86.4456 386.54 86.9225 386.293 87.4065C386.056 87.8892 385.764 88.2392 385.418 88.4567C385.073 88.6741 384.658 88.8195 384.174 88.8929C383.272 89.0295 382.751 88.6375 382.612 87.7168C382.53 87.1758 382.645 86.5611 382.959 85.8728C383.408 84.863 384.103 84.1361 385.046 83.6923C385.381 83.5347 385.739 83.4271 386.118 83.3696C386.185 83.3595 386.228 83.4209 386.248 83.5538C386.268 83.6867 386.245 83.7581 386.179 83.7682C385.059 83.9379 384.186 84.5217 383.56 85.5195C383.101 86.2687 382.918 86.9519 383.012 87.5688C383.105 88.1858 383.396 88.5058 383.885 88.5288L384.115 88.5085C384.894 88.3905 385.462 87.9743 385.819 87.2599C386.185 86.5345 386.426 85.6533 386.54 84.6164C386.654 83.57 386.757 81.9426 386.849 79.7342L386.735 79.7515C386.002 81.8336 385.303 82.925 384.639 83.0257C383.889 83.1394 383.429 82.6314 383.258 81.5019C383.158 80.847 383.221 80.1045 383.444 79.2744C383.759 78.1489 384.258 77.3694 384.94 76.936C385.18 76.7927 385.428 76.7017 385.685 76.6628C385.95 76.6226 386.171 76.6669 386.346 76.7957C386.521 76.9246 386.622 77.0839 386.651 77.2737C386.664 77.3592 386.623 77.4091 386.528 77.4235C386.441 77.4269 386.391 77.3859 386.378 77.3005C386.366 77.2151 386.307 77.1463 386.202 77.0943C386.105 77.0313 385.971 77.0127 385.8 77.0386C385.202 77.1292 384.742 77.7475 384.421 78.8934C384.116 79.9591 384.031 80.938 384.167 81.8302C384.25 82.3807 384.41 82.638 384.648 82.6021C384.961 82.5546 385.313 82.1226 385.704 81.306C386.293 80.0709 386.72 78.8847 386.985 77.7475C387.059 77.4644 387.152 77.3143 387.266 77.297Z" fill="#A7A7A7"/>
</svg>
