<svg width="512" height="512" viewBox="0 0 512 512" fill="none" xmlns="http://www.w3.org/2000/svg">
<path d="M110.312 343.672C115.844 343.672 120.156 343.812 123.25 344.094V239.188C118.469 239.938 112.047 240.312 103.984 240.312H102.859V343.672H110.312ZM146.031 360.969C118.656 357.312 93.2969 357.828 69.9531 362.516C67.7969 362.516 66.0625 361.719 64.75 360.125C63.4375 358.531 62.7812 356.844 62.7812 355.062C62.7812 353.281 63.2969 351.688 64.3281 350.281C65.3594 348.875 67.1875 347.938 69.8125 347.469C75.0625 346.438 81.1562 345.594 88.0938 344.938V239.75L66.5781 238.062C64.7031 237.781 63.1562 236.938 61.9375 235.531C60.8125 234.125 60.25 232.391 60.25 230.328C60.25 228.172 61.0938 226.484 62.7812 225.266C64.4688 223.953 66.1094 223.297 67.7031 223.297H68.5469C68.6406 223.297 69.7188 223.438 71.7812 223.719C73.8438 223.906 76.5156 224.188 79.7969 224.562C87.9531 225.312 96.1094 225.688 104.266 225.688C114.859 225.688 123.203 224.891 129.297 223.297H130.703C132.859 223.297 134.641 224.047 136.047 225.547C137.547 227.047 138.297 228.734 138.297 230.609V249.031C146.266 236.094 156.203 227.469 168.109 223.156C172.516 221.562 177.109 220.766 181.891 220.766C186.672 220.766 190.891 221.422 194.547 222.734C198.203 224.047 201.484 225.875 204.391 228.219C210.016 233 214.094 239.422 216.625 247.484C228.156 229.672 243.203 220.766 261.766 220.766C275.922 220.766 286.328 226.766 292.984 238.766C298.141 248.047 300.719 260.797 300.719 277.016C300.719 293.234 298.328 314.984 293.547 342.266C307.422 342.266 315.484 343.531 317.734 346.062C319.047 347.469 319.703 349.156 319.703 351.125C319.703 353 318.906 354.688 317.312 356.188C315.812 357.688 314.125 358.438 312.25 358.438H311.266C304.328 357.5 296.641 357.031 288.203 357.031C279.859 357.031 269.828 357.969 258.109 359.844H256.844C254.875 359.844 253.188 359.141 251.781 357.734C250.375 356.234 249.672 354.547 249.672 352.672C249.672 350.797 250.234 349.156 251.359 347.75C252.578 346.344 254.641 345.406 257.547 344.938C265.703 343.812 272.594 343.016 278.219 342.547C283.188 317.703 285.672 295.531 285.672 276.031C285.672 264.406 284.547 255.969 282.297 250.719C280.047 245.469 277.328 241.625 274.141 239.188C271.047 236.656 266.547 235.391 260.641 235.391C254.828 235.391 249.531 236.75 244.75 239.469C240.062 242.188 236.031 245.562 232.656 249.594C227.312 255.875 222.906 264.312 219.438 274.906C219.438 291.781 217.422 314.328 213.391 342.547C216.953 342.547 223.094 342.922 231.812 343.672C233.875 343.859 235.469 344.656 236.594 346.062C237.812 347.469 238.422 349.203 238.422 351.266C238.422 353.328 237.672 355.062 236.172 356.469C234.672 357.781 233.031 358.438 231.25 358.438H230.406C214.844 356.562 197.453 357.031 178.234 359.844H177.109C175.047 359.844 173.312 359.141 171.906 357.734C170.594 356.234 169.938 354.547 169.938 352.672C169.938 350.797 170.5 349.156 171.625 347.75C172.844 346.344 174.953 345.406 177.953 344.938C186.109 343.812 192.953 343.109 198.484 342.828C202.703 316.484 204.812 293.656 204.812 274.344C204.812 262.906 203.781 254.75 201.719 249.875C199.656 245 197.125 241.391 194.125 239.047C191.219 236.609 187.328 235.391 182.453 235.391C177.672 235.391 173.312 236.469 169.375 238.625C165.438 240.688 161.875 243.359 158.688 246.641C155.5 249.828 152.688 253.391 150.25 257.328C147.906 261.172 145.891 264.875 144.203 268.438C141.391 274.438 139.422 279.547 138.297 283.766L138.016 345.219C139.703 345.406 141.344 345.594 142.938 345.781C144.531 345.969 146.172 346.203 147.859 346.484C149.641 346.672 151.141 347.469 152.359 348.875C153.672 350.281 154.328 351.969 154.328 353.938C154.328 355.906 153.531 357.594 151.938 359C150.438 360.312 148.75 360.969 146.875 360.969H146.031ZM400.281 350.984C393.906 345.453 390.719 338.516 390.719 330.172V168.875L370.609 174.641V313.438C370.609 333.875 376.891 345.875 389.453 349.438C393.016 350.375 396.625 350.891 400.281 350.984ZM405.484 216.969C417.109 216.594 428.781 215.938 440.5 215H441.062C443.125 215 444.859 215.75 446.266 217.25C447.672 218.656 448.375 220.297 448.375 222.172C448.375 224.047 447.719 225.734 446.406 227.234C445.188 228.641 443.641 229.438 441.766 229.625C427.422 230.75 415.328 231.453 405.484 231.734V330.172C405.484 335.797 408.344 339.781 414.062 342.125C415.656 342.781 417.484 343.109 419.547 343.109C421.703 343.109 423.578 342.453 425.172 341.141C426.859 339.734 428.266 338 429.391 335.938C430.891 333.219 432.109 330.031 433.047 326.375C434.453 320.656 437.125 317.797 441.062 317.797C443.219 317.797 444.953 318.641 446.266 320.328C447.672 321.922 448.375 323.562 448.375 325.25V326.797C445.656 339.266 440.312 348.922 432.344 355.766C424.375 362.516 414.531 365.891 402.812 365.891C381.625 365.891 367.328 357.219 359.922 339.875C357.016 333.125 355.562 324.312 355.562 313.438V231.453C351.344 231.172 347.078 230.891 342.766 230.609C338.547 230.328 334.891 230 331.797 229.625C326.172 229.062 323.359 226.578 323.359 222.172C323.359 220.016 324.156 218.281 325.75 216.969C327.438 215.656 329.125 215 330.812 215H331.375L355.562 216.688V168.875C355.562 167.281 356.078 165.828 357.109 164.516C358.141 163.109 359.453 162.172 361.047 161.703L396.203 152.281C396.578 152 397.516 151.859 399.016 151.859C400.609 151.859 402.062 152.656 403.375 154.25C404.781 155.844 405.484 157.578 405.484 159.453V216.969Z" fill="black"/>
</svg>
